/* XPM */
static const char * error_xpm[] = {
"32 32 2 1",
" 	c None",
".	c #FF0000",
"................................",
"................................",
"....                        ....",
".....                      .....",
".. ...                    ... ..",
"..  ...                  ...  ..",
"..   ...                ...   ..",
"..    ...              ...    ..",
"..     ...            ...     ..",
"..      ...          ...      ..",
"..       ...        ...       ..",
"..        ...      ...        ..",
"..         ...    ...         ..",
"..          ...  ...          ..",
"..           ......           ..",
"..            ....            ..",
"..            ....            ..",
"..           ......           ..",
"..          ...  ...          ..",
"..         ...    ...         ..",
"..        ...      ...        ..",
"..       ...        ...       ..",
"..      ...          ...      ..",
"..     ...            ...     ..",
"..    ...              ...    ..",
"..   ...                ...   ..",
"..  ...                  ...  ..",
".. ...                    ... ..",
".....                      .....",
"....                        ....",
"................................",
"................................"};
